<svg width="138" height="137" viewBox="0 0 138 137" fill="none" xmlns="http://www.w3.org/2000/svg">
    <path d="M128.433 48.478C127.896 45.9756 127.208 43.5116 126.158 41.182C123.717 35.7708 119.429 31.3612 114.597 27.9148C105.518 21.438 94.4655 18.126 83.3743 16.9836C72.2831 15.8412 61.0799 16.766 50.0143 18.1388C39.8351 19.3996 29.7775 21.2876 21.0063 26.8812C12.8399 32.0908 6.71825 41.2492 4.06545 50.51C2.23825 56.8876 2.86545 63.8572 3.00305 70.4524C3.17585 78.606 3.96305 86.7308 4.37585 94.8748C4.92625 105.713 5.32625 117.835 13.1343 125.374C17.7839 129.864 24.2767 131.828 30.5935 133.192C55.1215 138.475 80.7503 136.83 105.285 131.566C109.902 130.574 114.597 129.416 118.549 126.827C124.142 123.163 127.675 116.952 129.438 110.5C132.414 99.5947 131.582 87.6428 131.995 76.4364C132.286 68.5356 130.501 59.998 129.153 52.2348C128.936 50.9836 128.705 49.726 128.44 48.4812L128.433 48.478Z" fill="#F2F8E9"/>
    <path d="M70.1038 23.8157C68.459 19.7901 68.0942 15.1309 69.931 11.1917C70.8974 9.12446 72.0782 7.15646 73.4478 5.32926C73.899 4.72766 77.659 1.18526 77.5822 0.772461C78.459 5.42526 79.3422 10.1645 78.763 14.8653C78.1102 20.1485 75.5854 23.4157 71.7614 26.7981C71.0414 25.9405 70.5294 24.8589 70.1038 23.8157Z" fill="#97C665"/>
    <path d="M78.7886 23.2209C80.059 22.1713 81.4094 21.2305 82.955 20.6897C84.859 20.0209 86.9582 19.9985 88.8206 19.2209C90.4046 18.5585 91.883 17.3457 93.595 17.4641C94.4974 17.5281 89.5022 26.5425 88.8878 27.2305C86.427 29.9857 82.6094 32.2033 78.9998 33.0065C75.7966 33.7201 72.9774 31.5505 74.363 28.0369C74.9102 26.6513 76.059 25.6113 77.1694 24.6193C77.6974 24.1489 78.235 23.6753 78.7822 23.2209H78.7886Z" fill="#97C665"/>
    <path d="M80.3822 36.5578C83.611 35.1818 87.323 34.8394 90.8398 35.5978C89.3198 38.689 86.7118 41.2138 83.547 42.6602C81.7646 43.4762 75.211 45.5914 73.6686 43.3226C72.0814 40.9866 78.7406 37.2618 80.3822 36.561V36.5578Z" fill="#97C665"/>
    <path d="M74.8942 49.9215C76.059 48.9263 77.419 48.1519 78.9006 47.6815C82.1806 46.6351 85.803 47.0383 89.2526 47.7039C88.1358 49.8895 86.9358 51.5279 84.8974 53.0127C82.9742 54.4143 80.7246 55.3903 78.3854 55.9695C76.7758 56.3695 75.067 56.3023 73.4254 55.9503C72.9358 55.8447 71.6206 55.7007 71.4126 55.2015C71.243 54.8015 72.0142 53.6047 72.1998 53.2591C72.8782 51.9919 73.7966 50.8591 74.8942 49.9215Z" fill="#97C665"/>
    <path d="M68.171 31.4862C68.8558 27.323 66.8334 22.5966 64.315 19.3614C61.883 16.2382 58.4654 13.899 54.6734 12.7598C54.6446 15.8446 54.6254 18.9742 55.4414 21.947C56.6222 26.2446 59.883 29.451 64.1102 30.8014C64.4942 30.923 68.171 31.4862 68.171 31.4862Z" fill="#97C665"/>
    <path d="M61.9215 35.1948C59.6367 33.7356 56.9871 32.9452 54.3279 32.542C54.8303 34.3244 55.6559 36.03 56.7503 37.5532C57.8703 39.1116 59.2911 40.4908 60.9839 41.4124C62.6991 42.3468 67.0991 43.8604 66.7087 40.9068C66.4175 38.6924 63.6943 36.3308 61.9215 35.198V35.1948Z" fill="#97C665"/>
    <path d="M54.1008 43.0764C53.688 42.958 53.272 42.8492 52.8528 42.75C53.64 46.3788 55.1696 49.9596 57.784 52.6956C59.8192 54.8268 62.568 56.3916 65.4864 56.8012C66.6672 56.9676 68.0464 57.3196 68.0208 55.886C68.0048 55.0476 67.7104 54.0428 67.4096 53.246C66.888 51.8668 65.9376 50.67 64.904 49.5948C61.9536 46.5324 58.1744 44.254 54.1008 43.0732V43.0764Z" fill="#97C665"/>
    <path d="M58.9999 61.5051C55.9471 59.8859 52.4303 59.1083 49.0447 58.9355C49.0031 58.9355 51.5791 62.9163 51.9023 63.2875C53.0863 64.6475 54.4847 65.8987 56.0431 66.9835C58.9679 69.0219 62.0335 70.0139 65.4511 69.6683C65.7007 69.6427 65.8639 69.4603 65.8223 69.2459C65.2015 66.2187 62.2127 63.2075 58.9967 61.5019L58.9999 61.5051Z" fill="#97C665"/>
    <path d="M79.8926 60.9707C83.3262 60.1355 86.9358 60.4331 90.3854 61.1755C88.795 63.8859 86.5134 66.2091 83.739 67.6011C81.643 68.6507 73.3422 70.5547 72.075 67.2427C70.9326 64.2507 78.0686 61.4123 79.8958 60.9675L79.8926 60.9707Z" fill="#97C665"/>
    <path d="M73.96 10.6602C72.3056 21.9722 70.648 33.3034 70.024 44.7594C69.7744 49.3642 69.688 53.9818 69.3104 58.5738C68.5008 68.3498 66.344 77.9658 62.9136 87.0762" stroke="#97C665" stroke-width="2" stroke-miterlimit="10"/>
    <path d="M70.7695 34.8298C73.5151 32.2154 76.6287 29.969 79.9983 28.1738" stroke="#97C665" stroke-width="2" stroke-miterlimit="10"/>
    <path d="M70.043 45.6652C71.8702 43.902 73.995 42.4396 76.3118 41.3516" stroke="#97C665" stroke-width="2" stroke-miterlimit="10"/>
    <path d="M69.499 56.9928C71.4958 55.1304 73.803 53.588 76.3086 52.4424" stroke="#97C665" stroke-width="2" stroke-miterlimit="10"/>
    <path d="M69.9472 45.6425C69.6912 45.0121 69.2208 44.4809 68.7408 43.9849C67.8032 43.0153 66.792 42.1161 65.7168 41.2969" stroke="#97C665" stroke-width="2" stroke-miterlimit="10"/>
    <path d="M70.8111 34.7501C69.6943 33.0573 68.3695 31.4957 66.8687 30.1133" stroke="#97C665" stroke-width="2" stroke-miterlimit="10"/>
    <path d="M67.3998 70.6093C66.0526 69.5853 64.5774 68.7341 63.019 68.0781" stroke="#97C665" stroke-width="2" stroke-miterlimit="10"/>
    <path d="M69.2495 58.3217C69.1407 57.9857 68.8783 57.7201 68.6223 57.4673C67.7295 56.5841 66.8366 55.6977 65.9438 54.8145" stroke="#97C665" stroke-width="2" stroke-miterlimit="10"/>
    <path d="M67.7488 70.0936C70.5872 67.2808 74.6576 66.0808 78.5616 64.9736" stroke="#97C665" stroke-width="2" stroke-miterlimit="10"/>
    <path d="M118.795 48.1258C118.504 47.2618 118.242 46.3786 118.222 45.4314C118.171 42.9258 118.93 40.3946 120.194 38.2442C122.43 34.4362 126.002 31.6362 129.49 28.9258C129.422 28.9802 130.331 33.1338 130.366 33.5978C130.488 35.297 130.402 37.009 130.12 38.689C129.576 41.937 128.29 45.1786 126.267 47.7994C124.76 49.7482 121.8 50.5738 119.611 51.4154C119.576 50.2826 119.163 49.217 118.795 48.129V48.1258Z" fill="#97C665"/>
    <path d="M137.717 53.7705C136.862 55.3161 130.856 59.1785 130.36 59.4249C128.274 60.4585 126.43 60.5577 124.229 60.1001C123.608 59.9721 117.995 58.6921 118.181 57.9241C118.424 56.9225 118.894 56.3081 119.774 55.6457C122.267 53.7673 126.347 52.5897 129.406 52.0585C132.21 51.5721 135.23 51.7929 137.685 53.2297C137.861 53.3321 137.858 53.5209 137.72 53.7705H137.717Z" fill="#97C665"/>
    <path d="M113.253 73.8094C114.718 73.3678 116.277 73.211 117.822 73.3774C121.246 73.7454 124.398 75.5758 127.288 77.5726C125.384 79.1246 123.627 80.1358 121.16 80.6734C118.834 81.179 116.382 81.163 114.011 80.7534C112.379 80.4686 110.84 79.7198 109.48 78.7342C109.074 78.4398 107.931 77.7806 107.941 77.2398C107.947 76.8046 109.134 76.0238 109.445 75.7806C110.578 74.8942 111.877 74.2286 113.256 73.8126L113.253 73.8094Z" fill="#97C665"/>
    <path d="M107.672 35.8665C107.496 37.4761 107.326 39.0857 107.16 40.6953C106.984 42.4009 106.814 44.1353 107.096 45.8281C107.55 48.5545 109.134 50.9545 110.894 53.0857C111.406 53.7033 111.989 54.3433 112.77 54.5257C117.509 55.6457 114.296 43.3961 113.662 41.8313C113.25 40.8137 112.808 39.8057 112.235 38.8713C111.301 37.3545 110.014 36.0553 108.51 35.1017C108.347 34.9993 108.149 34.8969 107.976 34.9769C107.784 35.0601 107.739 35.3065 107.714 35.5113C107.701 35.6297 107.688 35.7481 107.675 35.8697L107.672 35.8665Z" fill="#97C665"/>
    <path d="M107.323 55.0986C105.822 52.8426 103.714 51.0474 101.445 49.6074C101.186 51.441 101.253 53.3322 101.64 55.169C102.037 57.0474 102.779 58.881 103.957 60.4074C105.147 61.9562 108.565 65.1146 109.4 62.2538C110.027 60.1098 108.488 56.849 107.323 55.0986Z" fill="#97C665"/>
    <path d="M97.1055 58.1003C97.0607 58.0395 97.0191 57.9787 96.9711 57.9179C96.7279 57.6075 93.7391 55.1275 93.7167 55.1947C92.9903 57.2587 93.1919 59.5211 93.4031 61.7003C93.7583 65.3707 94.2031 69.2747 96.5391 72.1259C98.2991 74.2763 100.901 75.5243 103.413 76.7051C103.509 76.7499 103.611 76.7979 103.72 76.7947C104.002 76.7883 104.155 76.4651 104.232 76.1931C104.962 73.5947 104.475 71.4187 103.582 68.9835C102.405 65.7675 100.376 63.5083 98.5487 60.7115C97.9919 59.8603 97.6943 58.9227 97.1087 58.0971L97.1055 58.1003Z" fill="#97C665"/>
    <path d="M95.5183 76.6159C94.7471 75.6879 93.8352 74.8655 92.8592 74.1551C91.064 72.8463 89.0543 71.8671 87.0575 70.8975C86.9679 72.3631 86.8783 73.8287 86.7855 75.2943C86.6447 77.5791 87.96 79.9119 89.1216 81.8191C90.104 83.4351 97.5376 91.4191 97.9344 86.0047C98.104 83.6975 98.0143 81.3103 97.1055 79.1855C96.7087 78.2543 96.1615 77.3999 95.5151 76.6191L95.5183 76.6159Z" fill="#97C665"/>
    <path d="M109.617 83.2488C109.985 83.1624 110.353 83.0824 110.715 83.0024C114.619 82.148 119.016 81.3704 122.363 83.556C123.022 83.9848 115.048 89.9112 114.197 90.2824C111.153 91.604 107.467 92.3336 104.152 92.2632C102.389 92.2248 100.331 91.1496 100.373 89.3864C100.392 88.6184 100.817 87.9208 101.313 87.3352C103.349 84.9384 106.513 83.9656 109.617 83.2456V83.2488Z" fill="#97C665"/>
    <path d="M100.245 96.4493C103.998 95.7997 107.893 95.9597 111.573 96.9485C111.521 96.9357 108.661 100.171 108.299 100.468C106.891 101.624 105.31 102.574 103.627 103.268C100.097 104.728 96.7695 105.185 93.2495 103.396C91.4511 102.481 91.3199 100.67 92.7567 99.2781C93.4703 98.5869 94.3951 98.1645 95.3199 97.8093C96.9135 97.1949 98.5647 96.7405 100.248 96.4493H100.245Z" fill="#97C665"/>
    <path d="M128.235 37.5049C122.158 47.1881 116.069 56.8905 110.878 67.1177C108.792 71.2297 106.85 75.4217 104.651 79.4697C99.9664 88.0905 94.1136 96.0169 87.3008 102.97" stroke="#97C665" stroke-width="2" stroke-miterlimit="10"/>
    <path d="M115.566 58.3338C119.134 57.0474 122.888 56.2506 126.696 55.9658" stroke="#97C665" stroke-width="2" stroke-miterlimit="10"/>
    <path d="M110.53 67.9528C112.91 67.076 115.448 66.596 118.008 66.5352" stroke="#97C665" stroke-width="2" stroke-miterlimit="10"/>
    <path d="M105.464 78.0999C108.043 77.2007 110.776 76.7207 113.531 76.6855" stroke="#97C665" stroke-width="2" stroke-miterlimit="10"/>
    <path d="M110.453 67.8988C110.472 67.2172 110.254 66.542 110.018 65.8956C109.55 64.6316 108.987 63.3996 108.334 62.2188" stroke="#97C665" stroke-width="2" stroke-miterlimit="10"/>
    <path d="M115.637 58.276C115.301 56.276 114.715 54.3112 113.902 52.4424" stroke="#97C665" stroke-width="2" stroke-miterlimit="10"/>
    <path d="M98.0496 89.7131C97.2304 88.2347 96.2224 86.8587 95.0608 85.6299" stroke="#97C665" stroke-width="2" stroke-miterlimit="10"/>
    <path d="M104.699 79.2169C104.738 78.8649 104.603 78.5161 104.472 78.1833C104.011 77.0121 103.55 75.8441 103.09 74.6729" stroke="#97C665" stroke-width="2" stroke-miterlimit="10"/>
    <path d="M22.3984 25.9086C21.9088 24.7374 21.3328 23.6334 20.8016 22.5902C19.5088 20.0526 17.0672 17.8574 17.0512 17.899C15.2336 22.0206 14.84 26.8398 16.0624 31.1886C17 34.5326 19.0832 37.7934 22.1808 39.5022C22.424 38.8878 22.9296 38.4046 23.2048 37.8094C24.9264 34.0814 23.992 29.7134 22.3984 25.9086Z" fill="#97C665"/>
    <path d="M15.5951 37.1055C15.2591 36.8911 14.9103 36.6927 14.5487 36.5167C12.5647 35.5375 10.3343 35.1823 8.12629 35.0127C6.28309 34.8719 4.39829 34.8559 2.62549 35.3839C5.12149 40.7439 10.7087 44.8271 16.5423 45.6431C18.0303 45.8511 20.2223 45.5055 21.5119 44.7311C20.2639 41.7135 18.3247 38.8463 15.5919 37.1055H15.5951Z" fill="#97C665"/>
    <path d="M13.0704 47.3327C9.51201 46.2031 5.6304 46.0847 2.0144 47.0255C4.6672 49.8031 7.1056 52.3631 10.7024 53.8767C13.8864 55.0255 17.7744 55.3807 20.8592 53.7743C19.9664 50.9711 17.3616 49.0351 14.6416 47.9055C14.1264 47.6911 13.6016 47.4991 13.0704 47.3327Z" fill="#97C665"/>
    <path d="M15.4576 58.0914C14.3376 57.2978 12.2288 56.2642 10.8976 55.9538C7.94077 55.2658 3.73917 55.5538 0.823975 56.3826C2.03357 58.2258 4.28637 60.6898 6.21917 61.8514C8.03997 62.949 10.7472 63.6882 12.8368 64.0338C14.2736 64.2706 16.0176 63.7138 17.4 63.2882C17.8128 63.1602 18.9328 62.9426 19.0608 62.4882C19.1632 62.1234 18.3632 61.1282 18.1648 60.8338C17.4384 59.7682 16.5136 58.837 15.4608 58.0882L15.4576 58.0914Z" fill="#97C665"/>
    <path d="M33.8863 26.6129C35.4447 25.7553 37.0959 25.0353 38.7247 24.3281C38.6895 24.3441 38.6351 28.7729 38.5615 29.2273C38.2767 31.0641 37.7391 32.8593 36.9807 34.5553C35.5759 37.6945 33.3839 40.4753 30.6223 42.5329C29.6591 43.2497 27.3391 43.9217 26.1775 43.2689C24.8495 42.5233 25.1375 40.8753 25.2463 39.5121C25.5375 35.9249 26.9647 32.3857 29.5119 29.8065C30.7887 28.5137 32.2863 27.4929 33.8799 26.6129H33.8863Z" fill="#97C665"/>
    <path d="M31.0448 45.5851C32.0848 44.8587 33.2752 44.3659 34.5104 44.0811C35.6016 43.8283 36.8048 43.9275 37.816 43.4795C37.8512 44.9835 37.0352 46.7627 36.3184 48.0651C35.5216 49.5147 34.4432 50.8267 33.08 51.7611C31.8992 52.5675 30.4304 53.1339 28.9808 53.0731C28.5104 53.0539 28.0144 52.8107 27.8384 52.3723C27.7744 52.2091 27.7552 52.0299 27.7456 51.8571C27.6208 49.4891 28.9136 47.1755 30.8112 45.7547C30.8848 45.6971 30.9616 45.6427 31.0384 45.5915L31.0448 45.5851Z" fill="#97C665"/>
    <path d="M39.2305 52.7377C39.5761 52.6033 39.9217 52.4785 40.2737 52.3633C39.9953 55.6113 39.0673 58.8689 37.1089 61.4609C35.5825 63.4801 33.3777 65.0513 30.8945 65.6177C29.8897 65.8481 28.7345 66.2545 28.6001 64.9937C28.5201 64.2545 28.6641 63.3521 28.8369 62.6289C29.1345 61.3777 29.8257 60.2609 30.6033 59.2401C32.8177 56.3377 35.8385 54.0657 39.2337 52.7377H39.2305Z" fill="#97C665"/>
    <path d="M37.9344 67.9529C40.7184 66.1001 44.0624 65.0441 47.3552 64.6025C47.3936 64.5961 45.3744 68.7625 45.1024 69.1593C44.1136 70.6057 42.9008 71.9625 41.512 73.1657C38.9072 75.4281 36.0272 76.6569 32.6416 76.5865C32.3952 76.5801 32.2096 76.4106 32.2256 76.1961C32.4528 73.1402 35 69.9049 37.9344 67.9529Z" fill="#97C665"/>
    <path d="M18.8815 70.3053C15.8159 69.8157 12.7215 70.3309 9.81909 71.2301C11.4959 73.5021 13.7327 75.3837 16.2895 76.4109C18.2191 77.1853 25.6239 78.2701 26.3503 75.2717C27.0095 72.5581 20.5135 70.5677 18.8815 70.3085V70.3053Z" fill="#97C665"/>
    <path d="M18.4336 25.6299C21.1216 35.4635 23.816 45.3131 25.6272 55.3419C26.3568 59.3739 26.9424 63.4315 27.7808 67.4411C29.5664 75.9819 32.504 84.2891 36.4848 92.0587" stroke="#97C665" stroke-width="2" stroke-miterlimit="10"/>
    <path d="M23.88 46.6639C21.2112 44.5583 18.2672 42.8047 15.1472 41.4639" stroke="#97C665" stroke-width="2" stroke-miterlimit="10"/>
    <path d="M25.7136 56.1424C23.9376 54.7216 21.9344 53.5856 19.8032 52.792" stroke="#97C665" stroke-width="2" stroke-miterlimit="10"/>
    <path d="M27.4415 66.0688C25.5055 64.5712 23.3359 63.3776 21.0383 62.5488" stroke="#97C665" stroke-width="2" stroke-miterlimit="10"/>
    <path d="M25.7903 56.1194C25.9439 55.5466 26.2895 55.0474 26.6511 54.577C27.3551 53.6586 28.1327 52.7978 28.9711 52.001" stroke="#97C665" stroke-width="2" stroke-miterlimit="10"/>
    <path d="M23.8352 46.5967C24.6128 45.0287 25.5888 43.5599 26.7344 42.2383" stroke="#97C665" stroke-width="2" stroke-miterlimit="10"/>
    <path d="M30.7727 77.8957C31.8255 76.9005 33.0095 76.0461 34.2863 75.3613" stroke="#97C665" stroke-width="2" stroke-miterlimit="10"/>
    <path d="M27.7007 67.1794C28.3759 66.3378 29.6015 64.741 30.2767 63.8994" stroke="#97C665" stroke-width="2" stroke-miterlimit="10"/>
    <path d="M30.4111 77.4671C27.6399 75.1951 23.9823 74.4271 20.4783 73.7295" stroke="#97C665" stroke-width="2" stroke-miterlimit="10"/>
    <path d="M21.4607 81.2271C20.6991 80.2127 19.8671 79.2848 19.0959 78.4048C17.2175 76.264 14.3119 74.7343 14.3055 74.7823C13.5599 79.2239 14.3631 83.9919 16.6159 87.9055C18.3503 90.9167 21.1695 93.5631 24.5935 94.4591C24.6799 93.8031 25.0511 93.2112 25.1695 92.5648C25.9215 88.5264 23.9407 84.5263 21.4607 81.2271Z" fill="#97C665"/>
    <path d="M17.6207 93.7515C17.2431 93.6267 16.8559 93.5211 16.4623 93.4379C14.2991 92.9771 12.0463 93.1819 9.86706 93.5595C8.04626 93.8763 6.21266 94.3243 4.62866 95.2715C8.36626 99.8507 14.7855 102.436 20.6447 101.793C22.1391 101.63 24.1775 100.756 25.2367 99.6875C23.2815 97.0699 20.6991 94.7659 17.6239 93.7515H17.6207Z" fill="#97C665"/>
    <path d="M20.7216 104.117C16.9936 103.896 13.2016 104.737 9.92798 106.539C13.1824 108.577 16.1744 110.462 20.0336 111.045C23.4032 111.377 27.2592 110.763 29.8544 108.446C28.2992 105.947 25.2976 104.712 22.3856 104.286C21.8352 104.206 21.2784 104.149 20.7216 104.117Z" fill="#97C665"/>
    <path d="M34.5198 81.2784C35.2366 80.8112 35.9854 80.392 36.7534 80.0176C37.3742 85.1632 36.7918 91.3488 33.4062 95.5216C32.3854 96.7824 30.8782 97.128 29.3358 97.3968C29.2398 97.4128 29.1374 97.4288 29.0478 97.3904C28.9518 97.3488 28.891 97.2496 28.8398 97.1568C27.1278 94.0752 27.4062 90.1296 29.0606 87.016C30.315 84.6544 32.2702 82.7408 34.523 81.2784H34.5198Z" fill="#97C665"/>
    <path d="M34.683 98.1746C35.5118 97.2146 36.5454 96.4434 37.6718 95.8642C38.667 95.349 39.8574 95.1506 40.7278 94.4658C41.1342 95.9154 40.779 97.8418 40.4046 99.2786C39.9886 100.879 39.2686 102.418 38.1774 103.656C37.2334 104.728 35.947 105.637 34.5262 105.935C34.0654 106.031 33.5246 105.919 33.2462 105.535C33.1438 105.394 33.083 105.224 33.0318 105.058C32.331 102.795 33.0126 100.232 34.5006 98.389C34.5582 98.3154 34.619 98.245 34.6798 98.1746H34.683Z" fill="#97C665"/>
    <path d="M17.5471 81.9346C22.5711 90.805 27.6047 99.6882 31.8287 108.965C33.5279 112.693 35.0927 116.482 36.8911 120.165" fill="#97C665"/>
    <path d="M17.5471 81.9346C22.5711 90.805 27.6047 99.6882 31.8287 108.965C33.5279 112.693 35.0927 116.482 36.8911 120.165" stroke="#97C665" stroke-width="2" stroke-miterlimit="10"/>
    <path d="M28.0016 100.981C24.8976 99.5951 21.6112 98.6223 18.2576 98.0879L28.0016 100.981Z" fill="#97C665"/>
    <path d="M28.0016 100.981C24.8976 99.5951 21.6112 98.6223 18.2576 98.0879" stroke="#97C665" stroke-width="2" stroke-miterlimit="10"/>
    <path d="M32.1102 109.717C30.0366 108.776 27.8158 108.168 25.5598 107.922L32.1102 109.717Z" fill="#97C665"/>
    <path d="M32.1102 109.717C30.0366 108.776 27.8158 108.168 25.5598 107.922" stroke="#97C665" stroke-width="2" stroke-miterlimit="10"/>
    <path d="M32.1807 109.675C32.1871 109.08 32.4015 108.513 32.6351 107.969C33.0927 106.907 33.6335 105.88 34.2511 104.9" fill="#97C665"/>
    <path d="M32.1807 109.675C32.1871 109.08 32.4015 108.513 32.6351 107.969C33.0927 106.907 33.6335 105.88 34.2511 104.9" stroke="#97C665" stroke-width="2" stroke-miterlimit="10"/>
    <path d="M27.9407 100.926C28.3087 99.2139 28.8943 97.5499 29.6783 95.9883L27.9407 100.926Z" fill="#97C665"/>
    <path d="M27.9407 100.926C28.3087 99.2139 28.8943 97.5499 29.6783 95.9883" stroke="#97C665" stroke-width="2" stroke-miterlimit="10"/>
    <path d="M94.7886 111.165L105.057 116.439C105.349 116.589 105.521 116.897 105.496 117.22L105.176 121.661L32.907 118.125L32.8142 116.458L40.8622 111.716L94.7886 111.162V111.165Z" fill="#030712"/>
    <path d="M106.657 121.838C106.629 120.257 106.312 118.721 105.899 117.208C105.781 116.776 105.39 116.478 104.942 116.478C102.715 116.478 100.488 116.478 98.2607 116.478C91.2687 116.478 84.2767 116.478 77.2879 116.478H53.5087C47.1055 116.478 40.6543 116.683 34.2639 116.424C33.9183 116.411 33.5759 116.395 33.2303 116.382C33.0863 116.376 32.9263 116.376 32.8143 116.469C32.7151 116.549 32.6831 116.683 32.6543 116.805C32.2895 118.395 32.0559 120.024 32.0207 121.656C31.9791 122.952 32.0463 124.193 32.3503 125.445C32.3791 125.563 32.4079 125.681 32.4687 125.787C32.7823 126.337 33.5247 126.229 34.0463 126.232C34.8559 126.232 35.6751 126.305 36.4847 126.328C38.0719 126.373 39.6591 126.382 41.2431 126.382H105.153C105.598 126.382 105.989 126.088 106.107 125.662C106.453 124.421 106.68 123.153 106.657 121.841V121.838Z" fill="#FFAB3D"/>
    <path opacity="0.14" d="M99.2335 115.681C98.1839 114.004 96.0271 113.45 94.0655 113.207C90.1711 112.73 86.2287 112.935 82.3055 113.041C69.6143 113.38 56.9199 112.666 44.2255 112.628C41.6847 112.621 39.1215 112.644 36.6415 113.201C35.7807 113.393 34.8879 113.681 34.3055 114.34C32.9039 115.927 34.8687 118.432 36.5327 118.436C37.3423 118.436 38.1615 118.509 38.9711 118.532C40.5583 118.577 42.1455 118.586 43.7295 118.586H82.2959C86.0911 118.586 89.7679 118.525 93.5727 118.519C95.8063 118.519 98.3247 117.722 99.2335 115.677V115.681Z" fill="#030712"/>
    <path d="M100.578 101.537C100.578 101.125 100.616 100.747 100.61 100.427L100.661 100.353L100.603 100.257C100.574 99.9469 100.475 99.7133 100.206 99.6013L94.9423 90.9037L44.8847 90.7373L35.1919 98.9453C34.5999 99.4445 34.2607 100.18 34.2607 100.955L34.2735 114.405C34.2735 115.521 35.1791 116.43 36.2991 116.43H98.5519C99.6687 116.43 100.578 115.525 100.578 114.405C101.122 110.456 101.064 106.126 100.578 101.534V101.537Z" fill="#527AFF"/>
    <path d="M35.4351 99.1943L99.7487 99.5239" stroke="#030712" stroke-linecap="round" stroke-linejoin="round"/>
    <path d="M94.3888 87.0378L34.792 81.8986C34.456 81.8698 34.168 82.1354 34.168 82.4746L34.2672 94.2026C34.2672 94.497 34.4912 94.7402 34.7824 94.769L95.1568 100.74L94.3824 87.0378H94.3888Z" fill="#F5667A"/>
    <path d="M43.144 79.4951C42.8112 79.6615 34.5232 82.1479 34.5232 82.1479L93.5312 87.7831L103.262 81.1271C103.355 81.0631 103.314 80.9159 103.198 80.9127L43.1408 79.4951H43.144Z" fill="#F5667A"/>
    <path opacity="0.14" d="M33.9022 82.6219C33.8286 82.8971 33.9694 83.2395 34.0494 83.6235C34.2702 84.6827 34.2446 85.8251 34.3054 86.9099C34.3246 87.2651 34.3502 87.6363 34.5422 87.9371C34.7726 88.2987 35.2014 88.4843 35.611 88.6187C38.7118 89.6363 42.0686 89.0315 45.3262 88.8523C52.9838 88.4299 60.923 90.3947 68.1934 87.9499C69.9598 87.3547 71.643 86.5099 73.4446 86.0331C76.4686 85.2331 79.6526 85.5051 82.779 85.4987C85.7774 85.4923 88.7758 85.2267 91.7294 84.7019C92.2638 84.6059 93.3902 84.2827 93.0382 83.4923C92.7886 82.9323 92.283 83.2779 91.8222 83.3227C90.0814 83.4987 88.1998 83.1851 86.443 83.1371C82.6702 83.0379 78.8942 83.0762 75.1182 82.9866C67.1758 82.7978 59.2334 82.6123 51.291 82.4235C47.4574 82.3339 43.627 82.2411 39.7934 82.1515C38.2734 82.1163 36.0366 81.6299 34.5838 82.1099C34.1422 82.2347 33.9566 82.4075 33.9022 82.6219Z" fill="#030712"/>
    <path d="M102.913 80.9801L93.2847 87.4793L95.1631 100.74C95.1471 100.628 95.6751 100.161 95.7455 100.081C96.7375 98.9577 97.7295 97.8377 98.7215 96.7145C99.9855 95.2841 101.249 93.8537 102.513 92.4265C103.045 91.8281 103.573 91.2265 104.104 90.6281C104.363 90.3369 104.629 90.0521 104.888 89.7577C104.987 89.6457 105.089 89.5241 105.105 89.3769C105.125 89.2201 105.029 89.0569 104.881 88.9961C104.504 88.8393 104.011 89.4441 103.781 89.6681C103.406 90.0329 103.057 90.4233 102.702 90.8073C102.065 91.4953 101.429 92.1801 100.792 92.8681C99.8351 93.8985 98.8815 94.9289 97.9247 95.9593L95.9759 87.2617L103.429 81.8185C103.582 81.7065 103.781 81.6073 103.768 81.4153C103.739 80.9929 103.269 80.7529 102.913 80.9801Z" fill="#F5667A"/>
    <path d="M103.243 82.043L93.9055 88.7822C93.0767 92.7054 93.5439 95.9662 94.9551 99.7774L104.181 89.3902L103.24 82.043H103.243Z" fill="white"/>
    <path d="M34.6895 82.123L93.6591 87.6334" stroke="#030712" stroke-linecap="round" stroke-linejoin="round"/>
    <path d="M102.808 81.2617L94.0847 87.7033" stroke="#030712" stroke-linecap="round" stroke-linejoin="round"/>
    <path d="M87.0704 55.6839L94.0368 65.1719C94.3759 65.6359 94.0432 66.2887 93.4704 66.2823L32.2128 66.2087C31.608 66.2087 30.792 66.0455 31.128 65.5431L37.8416 55.6807H87.0704V55.6839Z" fill="#527AFF"/>
    <path d="M92.0271 64.1357H33.3711C31.8565 64.1357 30.6287 65.3636 30.6287 66.8781V81.5341C30.6287 83.0487 31.8565 84.2765 33.3711 84.2765H92.0271C93.5416 84.2765 94.7695 83.0487 94.7695 81.5341V66.8781C94.7695 65.3636 93.5416 64.1357 92.0271 64.1357Z" fill="#FF8F0F"/>
    <path d="M37.9566 81.4382C38.0398 81.195 38.0462 80.9454 37.995 80.715C38.0046 80.5454 38.011 80.3342 38.011 80.2894C38.0238 79.9022 37.9982 79.5086 37.9982 79.1214V75.2846C37.9982 73.1918 38.1198 71.0862 38.1102 69.0062C38.1102 68.811 38.0718 68.6414 38.0046 68.491C37.2238 68.4846 36.4398 68.4718 35.659 68.459C35.5886 68.6158 35.547 68.795 35.5502 69.003C35.5598 71.1758 35.4382 73.387 35.4382 75.579C35.4382 77.4318 35.1822 79.5054 35.435 81.339C36.2734 81.3614 37.115 81.3966 37.9566 81.4382Z" fill="#A35700"/>
    <path d="M52.9903 72.0391C52.1679 72.0391 52.1647 73.3191 52.9903 73.3191C53.8159 73.3191 53.8159 72.0391 52.9903 72.0391Z" fill="#6B3D00"/>
    <path d="M47.2784 76.8234C47.2528 76.7434 47.208 76.6762 47.1472 76.6186C47.0896 76.5546 47.0192 76.513 46.9424 76.4874C46.8656 76.4458 46.7824 76.4298 46.696 76.433C46.6384 76.4394 46.584 76.449 46.5264 76.4554C46.4176 76.4842 46.3248 76.5418 46.2448 76.6186C46.2128 76.6602 46.1776 76.705 46.1456 76.7466C46.088 76.8458 46.0592 76.9546 46.0592 77.0698V77.153C46.056 77.2426 46.0752 77.3226 46.1136 77.3994C46.1392 77.4794 46.184 77.5466 46.2448 77.6042C46.3024 77.665 46.3728 77.7098 46.4496 77.7354C46.5264 77.777 46.6096 77.793 46.696 77.7898C46.7536 77.7834 46.808 77.7738 46.8656 77.7674C46.9744 77.7386 47.0672 77.681 47.1472 77.6042C47.1792 77.5626 47.2144 77.5178 47.2464 77.4762C47.304 77.377 47.3328 77.2682 47.3328 77.153V77.0698C47.336 76.9802 47.3168 76.9002 47.2784 76.8234Z" fill="#6B3D00"/>
    <path d="M51.6656 81.5684C50.8432 81.5684 50.84 82.8484 51.6656 82.8484C52.4912 82.8484 52.4912 81.5684 51.6656 81.5684Z" fill="#6B3D00"/>
    <path d="M59.6207 76.5957C58.7983 76.5957 58.7951 77.8757 59.6207 77.8757C60.4463 77.8757 60.4463 76.5957 59.6207 76.5957Z" fill="#6B3D00"/>
    <path d="M68.9871 78.2539C68.1647 78.2539 68.1615 79.5339 68.9871 79.5339C69.8127 79.5339 69.8127 78.2539 68.9871 78.2539Z" fill="#6B3D00"/>
    <path d="M70.6449 70.8779C69.8225 70.8779 69.8193 72.1579 70.6449 72.1579C71.4705 72.1579 71.4705 70.8779 70.6449 70.8779Z" fill="#6B3D00"/>
    <path d="M78.1871 81.1523C77.3647 81.1523 77.3615 82.4323 78.1871 82.4323C79.0127 82.4323 79.0127 81.1523 78.1871 81.1523Z" fill="#6B3D00"/>
    <path d="M75.6431 76.126C74.8207 76.126 74.8175 77.406 75.6431 77.406C76.4687 77.406 76.4687 76.126 75.6431 76.126Z" fill="#6B3D00"/>
    <path d="M90.3695 75.0215C89.5471 75.0215 89.5439 76.3015 90.3695 76.3015C91.1951 76.3015 91.1951 75.0215 90.3695 75.0215Z" fill="#6B3D00"/>
    <path d="M80.2032 66.5127C79.3808 66.5127 79.3776 67.7927 80.2032 67.7927C81.0288 67.7927 81.0288 66.5127 80.2032 66.5127Z" fill="#6B3D00"/>
    <path d="M88.1329 68.1416C87.3105 68.1416 87.3073 69.4216 88.1329 69.4216C88.9585 69.4216 88.9585 68.1416 88.1329 68.1416Z" fill="#6B3D00"/>
    <path d="M57.0511 68.0586C56.2287 68.0586 56.2255 69.3386 57.0511 69.3386C57.8767 69.3386 57.8767 68.0586 57.0511 68.0586Z" fill="#6B3D00"/>
    <path d="M40.1902 81.2684C40.1902 81.3324 40.1998 81.3868 40.2062 81.4444C41.0478 81.4764 41.8862 81.4988 42.7246 81.502C42.7374 81.4284 42.747 81.3516 42.747 81.2684C42.747 79.2044 42.6798 77.1628 42.5582 75.1052C42.4974 74.0588 42.5486 73.0092 42.5294 71.9628C42.5102 70.9484 42.315 69.9148 42.4814 68.9036C42.5006 68.7756 42.5006 68.6572 42.491 68.542C41.9342 68.5164 41.3742 68.4588 40.8206 68.398C40.5454 68.398 40.267 68.3948 39.9918 68.3916C39.6974 70.3884 39.9086 72.5644 39.9726 74.574C40.0462 76.814 40.1902 79.0252 40.1902 81.2684Z" fill="#A35700"/>
    <path opacity="0.14" d="M87.1631 56.0589C88.2031 57.4765 89.2431 58.8909 90.2831 60.3053C91.0575 61.3581 91.8319 62.4141 92.6063 63.4701C93.0511 64.0749 94.5743 65.3069 94.3727 66.1645C94.1103 67.2781 91.9439 67.1149 91.0831 67.1053C82.7279 67.0029 74.3695 67.1853 66.0303 67.6493C64.1007 67.7581 62.1519 67.8829 60.2927 68.4109C58.1295 69.0285 56.1423 70.1741 53.9695 70.7533C49.7039 71.8893 45.0735 70.7533 40.8239 71.9501C38.0655 72.7277 35.6815 74.4333 33.1855 75.8381C32.7279 76.0941 32.2479 76.3501 31.7231 76.3757C29.2367 76.4973 31.1855 68.6509 31.4543 67.1085C31.6783 65.8349 31.7551 64.4429 32.5583 63.4157C33.3039 62.4621 34.1551 61.6077 34.8623 60.5677C35.8863 59.0637 36.9103 57.5597 37.9311 56.0557H87.1599L87.1631 56.0589Z" fill="#030712"/>
    <path d="M93.3678 65.5469L31.707 65.6301" stroke="#030712" stroke-linecap="round" stroke-linejoin="round"/>
    <path d="M43.2239 47.7419L106.712 44.0811C108.395 50.9099 108.149 55.0123 106.757 61.7194C106.542 62.7562 105.662 63.5242 104.609 63.5978L44.5391 67.7802C44.3055 67.7962 44.1071 67.617 44.0943 67.3834L43.2239 47.7419Z" fill="#E5102E"/>
    <path d="M99.915 39.1914C100.267 39.4474 106.712 44.0842 106.712 44.0842L44.3086 48.9802L33.5022 43.393L99.915 39.1946V39.1914Z" fill="#030712"/>
    <path d="M34.2608 44.417L43.7232 48.4746C44.7888 54.289 45.72 61.4986 44.2192 67.3706L35.1696 61.4922L34.2576 44.4202L34.2608 44.417Z" fill="white"/>
    <path d="M44.5231 66.6791C44.3567 66.5671 44.1583 66.4743 44.0399 66.3847C43.7327 66.1543 43.4031 65.9559 43.0735 65.7543C42.0911 65.1559 41.1215 64.4743 40.1007 63.9463C39.1471 63.4535 38.2543 62.8519 37.3359 62.2983C36.9167 62.0455 36.5167 61.7671 36.1135 61.4919C35.9151 61.3575 35.7135 61.2263 35.5151 61.0919C35.3199 60.9607 35.1215 60.8455 34.9167 60.7303C34.8271 60.6791 34.7375 60.6279 34.6479 60.5799C34.5839 60.5447 34.5103 60.5063 34.4367 60.5191C34.3215 60.5383 34.2639 60.6663 34.2415 60.7815C34.2031 60.9703 34.2095 61.1655 34.2607 61.3511C34.3023 61.5143 34.4527 61.5847 34.5871 61.6775C34.9071 61.8983 35.2527 62.0743 35.5759 62.2887C36.0623 62.6119 36.5359 62.9383 37.0351 63.2391C38.1871 63.9271 39.3391 64.6055 40.4847 65.3063C41.6047 65.9911 42.6831 66.7431 43.7839 67.4471C43.9535 67.5559 44.3823 67.8247 44.5935 67.7575C44.7663 67.7031 44.7727 67.4503 44.8015 67.3095C44.8239 67.1975 44.8367 67.0759 44.7951 66.9703C44.7535 66.8615 44.6479 66.7687 44.5231 66.6855V66.6791Z" fill="#E5102E"/>
    <path d="M94.1808 42.1515L95.064 44.4715L34.7312 44.5835L35.1728 41.9307L94.1808 42.1515Z" fill="#030712"/>
    <path d="M44.1904 48.3786C44.0144 48.2858 43.8064 48.2154 43.6784 48.1386C43.3456 47.9434 42.9968 47.7802 42.648 47.6202C41.6048 47.1338 40.568 46.561 39.496 46.1482C38.4944 45.7642 37.5408 45.2618 36.568 44.8138C36.1232 44.609 35.6976 44.3754 35.2624 44.1482C35.0512 44.0362 34.8368 43.9274 34.6224 43.8154C34.4144 43.7066 34.2032 43.6138 33.9856 43.521C33.8928 43.4794 33.7968 43.441 33.704 43.3994C33.6368 43.3706 33.56 43.3386 33.4896 43.361C33.3776 43.393 33.336 43.5274 33.3232 43.6426C33.3072 43.8346 33.336 44.0266 33.4032 44.2058C33.464 44.3626 33.6208 44.417 33.7648 44.497C34.1072 44.6794 34.4688 44.817 34.8144 44.9962C35.3328 45.265 35.8384 45.537 36.3696 45.7802C37.5888 46.337 38.8112 46.8874 40.024 47.4538C41.2144 48.0106 42.3664 48.641 43.5408 49.2202C43.72 49.3098 44.1744 49.5306 44.3792 49.441C44.5456 49.3674 44.5232 49.1178 44.536 48.9706C44.5456 48.8554 44.5456 48.7338 44.4944 48.6314C44.44 48.529 44.3248 48.4458 44.1936 48.3754L44.1904 48.3786Z" fill="#E5102E"/>
    <path d="M45.051 48.2251L105.717 44.4971" stroke="#030712" stroke-linecap="round" stroke-linejoin="round"/>
    <path d="M43.7358 48.6699C44.907 54.5227 45.9918 61.6683 44.2222 67.3675" stroke="#030712" stroke-linecap="round" stroke-linejoin="round"/>
    <path d="M94.1358 28.417H33.7198C32.6082 28.417 31.707 29.3182 31.707 30.4298V42.0106C31.707 43.1222 32.6082 44.0234 33.7198 44.0234H94.1358C95.2475 44.0234 96.1486 43.1222 96.1486 42.0106V30.4298C96.1486 29.3182 95.2475 28.417 94.1358 28.417Z" fill="#527AFF"/>
    <path d="M98.5551 116.433L34.9519 116.299" stroke="#030712" stroke-linecap="round" stroke-linejoin="round"/>
    <path d="M51.7551 96.5068C65.7871 97.8924 80.1871 99.4924 94.2895 100.83" stroke="#030712" stroke-linecap="round" stroke-linejoin="round"/>
    <path d="M46.9744 95.9238C47.6976 96.0134 48.424 96.103 49.1472 96.1926" stroke="#030712" stroke-linecap="round" stroke-linejoin="round"/>
    <path d="M39.3711 95.1367C41.4671 95.3319 43.7071 95.6519 45.8127 95.8055" stroke="#030712" stroke-linecap="round" stroke-linejoin="round"/>
    <path d="M94.3534 82.542C94.1294 83.3804 93.3774 84.0492 92.5198 84.174" stroke="#030712" stroke-linecap="round" stroke-linejoin="round"/>
    <path d="M90.3151 84.3086H73.1055" stroke="#030712" stroke-linecap="round" stroke-linejoin="round"/>
    <path d="M44.5391 48.1641C43.9215 48.1641 43.9215 49.1241 44.5391 49.1241C45.1567 49.1241 45.1567 48.1641 44.5391 48.1641Z" fill="#E5102E"/>
    <path d="M79.0224 72.3178C78.7376 73.6138 78.6768 74.9611 78.8464 76.2763C79.032 77.7227 79.6368 79.2971 80.9808 79.8667C82.2256 80.3947 83.736 79.8283 84.6352 78.8171C85.5344 77.8059 85.928 76.4427 86.1456 75.1083C86.5296 72.7242 86.0176 69.9178 83.5344 68.833C81.2144 67.8186 79.4544 70.3499 79.0224 72.3211V72.3178Z" fill="#A35700"/>
    <path d="M85.2463 89.7224C83.2943 90.9576 83.4287 94.5608 84.5007 96.5704C84.6639 96.8744 84.8527 97.172 85.0991 97.412C85.9471 98.2408 87.4703 98.228 88.3055 97.3832C89.4735 96.2024 89.3487 94.1864 89.3391 92.6728C89.3391 92.068 89.3199 91.4504 89.1343 90.8744C88.9487 90.2984 88.5743 89.7544 88.0207 89.5016C87.7455 89.3736 87.4415 89.3256 87.1407 89.3064C86.3631 89.252 85.7359 89.412 85.2431 89.7256L85.2463 89.7224Z" fill="#E5102E"/>
    <path d="M78.68 91.0732C78.5904 91.0348 78.4944 90.9996 78.3888 90.9644C77.176 90.5612 75.9376 90.5036 74.6544 90.5196C72.9552 90.542 71.256 90.1996 69.5696 89.9756C66.1392 89.518 62.7312 88.99 59.2912 88.5708C55.9824 88.1676 52.7024 87.95 49.3776 87.7868C47.7136 87.7036 46.0944 87.3132 44.4368 87.15C42.408 86.9516 40.4976 86.6316 38.4336 86.8364C38.3152 86.8492 38.1872 86.8652 38.1008 86.9484C38.0176 87.0252 37.9952 87.1468 37.9728 87.2556C37.7872 88.254 37.5248 89.8028 38.4976 90.4588C39.5152 91.1468 41.9984 90.7852 43.2016 90.9036C44.8912 91.07 46.5616 91.358 48.2544 91.5372C51.7232 91.902 55.2208 91.9148 58.696 92.3372C62.1328 92.7532 65.5376 93.278 68.968 93.7356C71.832 94.1196 74.6608 94.5772 77.5088 95.0316C78.0688 95.1212 78.7408 95.1692 79.096 94.7276C79.2912 94.4844 79.3264 94.158 79.3552 93.8476C79.4928 92.3916 79.8992 91.6012 78.6768 91.0764L78.68 91.0732Z" fill="#E5102E"/>
    <path d="M43.6815 113.614C43.5951 109.77 43.6719 105.921 44.0271 102.094C44.0271 102.014 44.0271 101.934 44.0271 101.854C42.9999 101.895 41.9759 101.946 40.9551 102.01C39.6399 102.094 37.3967 101.889 36.5263 103.041C36.0975 103.607 36.0463 104.366 36.0175 105.073C35.9311 107.223 35.9279 109.38 36.0111 111.534C36.0175 111.671 36.0207 111.812 36.0271 111.95C36.0559 112.586 36.1295 113.306 36.6351 113.697C36.9391 113.93 37.3359 113.994 37.7167 114.033C39.4191 114.209 41.0607 113.886 42.7791 113.966C43.0831 113.978 43.3871 113.991 43.6911 114.004C43.6879 113.876 43.6815 113.745 43.6783 113.617L43.6815 113.614Z" fill="#0037EB"/>
    <path d="M88.4368 101.899C81.6848 101.701 74.9296 101.697 68.1744 101.755C61.5248 101.813 54.7728 101.617 48.0784 101.739C48.0784 101.813 48.0784 101.883 48.0784 101.957C48.1264 105.899 48.1872 109.841 48.1104 113.784C48.12 113.918 48.1328 114.053 48.1424 114.187C48.552 114.203 48.9616 114.219 49.3712 114.235C53.5824 114.382 57.7968 114.469 62.0112 114.427C70.4048 114.341 78.8048 113.739 87.1824 114.261C87.4064 114.273 87.6272 114.289 87.8512 114.305C88.0528 110.171 88.28 106.04 88.4368 101.905V101.899Z" fill="#0037EB"/>
    <path d="M89.6496 101.937C89.64 102.189 89.6336 102.442 89.624 102.695C89.4672 106.589 89.256 110.484 89.064 114.378C89.6944 114.42 90.328 114.461 90.9584 114.493C91.1664 110.33 91.4 106.167 91.6432 102.004C90.9776 101.978 90.312 101.956 89.6496 101.937Z" fill="#0037EB"/>
    <path d="M98.4816 108.875C98.5712 107.169 99.1568 103.563 97.256 102.551C96.68 102.244 96.008 102.203 95.3552 102.171C94.5232 102.129 93.6912 102.094 92.856 102.059C92.8368 102.356 92.8208 102.657 92.8016 102.955C92.5744 106.817 92.3632 110.679 92.168 114.542C93.4288 114.574 94.6896 114.545 95.9408 114.388C96.6352 114.302 97.3584 114.158 97.8928 113.71C98.904 112.862 98.4144 110.087 98.4784 108.878L98.4816 108.875Z" fill="#0037EB"/>
    <path d="M92.6895 120.071H37.9919C35.5215 120.071 35.5183 123.911 37.9919 123.911H92.6895C95.1599 123.911 95.1631 120.071 92.6895 120.071Z" fill="#FF8F0F"/>
    <path d="M100.978 120.071H98.6576C97.6528 120.071 96.6896 120.954 96.7376 121.991C96.7856 123.031 97.5824 123.911 98.6576 123.911H100.978C101.982 123.911 102.946 123.028 102.898 121.991C102.85 120.951 102.053 120.071 100.978 120.071Z" fill="#FF8F0F"/>
    <path d="M51.4608 53.5399C51.0448 55.8727 50.9744 58.2535 51.0224 60.6247C51.0448 61.7575 51.2048 63.0823 52.184 63.6487C52.9232 64.0775 53.9056 63.8791 54.5776 63.3511C55.2496 62.8231 55.6592 62.0295 55.9504 61.2263C56.904 58.5991 56.7376 55.6199 55.592 53.0823C55.1984 52.2151 54.7856 51.3319 53.7392 51.2551C52.296 51.1463 51.6816 52.3175 51.464 53.5431L51.4608 53.5399Z" fill="#030712"/>
    <path d="M60.2319 60.6827C60.3375 61.2363 60.4783 61.8123 60.8527 62.2283C61.8351 63.3195 63.8447 62.9355 65.1471 62.9643C67.1247 63.0059 69.0991 62.7947 71.0607 62.5867C79.9215 61.6427 88.9007 60.8907 97.8159 60.5131C99.0095 60.4619 100.261 60.3435 101.445 60.1643C101.675 60.1291 101.912 60.0843 102.101 59.9499C102.373 59.7547 102.494 59.4123 102.59 59.0923C103.525 55.9307 103.579 52.5131 102.744 49.3227C102.641 48.9259 102.497 48.4971 102.145 48.2827C101.883 48.1227 101.56 48.1195 101.256 48.1227C96.1455 48.1515 91.0383 48.4875 85.9375 48.8203C80.4623 49.1787 74.9871 49.5403 69.5119 49.8987C67.3487 50.0395 65.1823 50.1835 63.0319 50.4811C62.3695 50.5739 61.6751 50.6955 61.1631 51.1275C60.5679 51.6299 60.3535 52.4395 60.2127 53.2043C59.7583 55.6683 59.7647 58.2155 60.2287 60.6859L60.2319 60.6827Z" fill="#BD1111"/>
    <path d="M94.843 98.5066L104.126 88.5898" stroke="#FFEDD1" stroke-linecap="round" stroke-linejoin="round"/>
    <path d="M103.96 87.5947L94.3054 96.7115" stroke="#FFEDD1" stroke-linecap="round" stroke-linejoin="round"/>
    <path d="M103.877 86.7656L94.0718 95.22" stroke="#FFEDD1" stroke-linecap="round" stroke-linejoin="round"/>
    <path d="M103.493 84.8613L93.6558 92.3749" stroke="#FFEDD1" stroke-linecap="round" stroke-linejoin="round"/>
    <path d="M103.63 85.8828L93.7678 93.95" stroke="#FFEDD1" stroke-linecap="round" stroke-linejoin="round"/>
    <path d="M103.269 82.7334L93.8511 89.4598" stroke="#FFEDD1" stroke-linecap="round" stroke-linejoin="round"/>
    <path d="M103.464 83.5752L93.8096 90.788" stroke="#FFEDD1" stroke-linecap="round" stroke-linejoin="round"/>
    <path opacity="0.23" d="M94.0559 88.6221C93.6975 89.3229 93.6495 90.1453 93.5919 91.1821C93.5279 92.3565 93.5695 93.5373 93.6975 94.7085C93.7935 95.5885 93.7967 97.5021 94.3407 98.2221C94.6959 98.6893 95.3167 98.9517 95.5023 97.9437C95.5951 97.4413 95.3967 96.9357 95.2879 96.4333C95.0191 95.1821 95.3199 93.8861 95.6207 92.6445C95.7743 92.0013 95.9375 91.3421 96.2991 90.7885C96.6543 90.2445 97.1823 89.8349 97.6175 89.3549C98.5263 88.3533 99.0383 87.0061 99.0319 85.6557C99.0319 85.5117 98.9999 85.3325 98.8623 85.2909C98.7695 85.2621 98.6735 85.3101 98.5903 85.3581C97.5055 85.9597 96.4591 86.6349 95.3967 87.2813C94.7183 87.6941 94.3087 88.1325 94.0527 88.6317L94.0559 88.6221Z" fill="#030712"/>
    <path d="M94.0846 87.7031C93.1214 91.7639 93.5054 96.0679 95.051 100.577" stroke="#030712" stroke-linecap="round" stroke-linejoin="round"/>
    <path d="M66.2063 79.71C66.0207 79.7068 65.8447 79.6492 65.6559 79.6812C65.6015 79.6908 65.5503 79.7036 65.4959 79.7196C65.0703 79.7196 64.6479 79.694 64.2351 79.5692C63.9471 79.4796 63.6399 79.374 63.3807 79.2204C63.1119 79.0636 62.8815 78.8524 62.6511 78.6476C62.3439 78.3756 61.8895 78.8268 62.1999 79.0988C62.4655 79.3324 62.7279 79.5724 63.0319 79.7548C63.3295 79.934 63.6783 80.0588 64.0079 80.1644C64.1583 80.2124 64.3087 80.2476 64.4623 80.2764C64.3151 80.3788 64.1711 80.4812 64.0303 80.59C63.7231 80.83 63.4127 81.0892 63.1855 81.4092C62.9615 81.7292 62.8239 82.11 62.7247 82.4876C62.6191 82.8876 63.2367 83.0572 63.3423 82.6572C63.4223 82.35 63.5279 82.0492 63.7039 81.7836C63.8831 81.5084 64.1711 81.2844 64.4303 81.0828C64.7055 80.8716 64.9999 80.6732 65.3039 80.5068C65.3903 80.4588 65.4959 80.398 65.5983 80.3564C65.8031 80.3564 66.0047 80.3532 66.2095 80.35C66.6223 80.35 66.6223 79.7164 66.2095 79.71H66.2063Z" fill="#A35700"/>
    <path d="M76.8079 69.1789C76.6479 69.2717 76.4687 69.3165 76.3215 69.4381C76.2799 69.4733 76.2415 69.5117 76.2031 69.5533C75.8383 69.7741 75.4639 69.9725 75.0479 70.0781C74.7567 70.1517 74.4367 70.2189 74.1359 70.2253C73.8255 70.2285 73.5183 70.1677 73.2143 70.1133C72.8111 70.0429 72.6543 70.6637 73.0607 70.7341C73.4063 70.7949 73.7583 70.8653 74.1103 70.8653C74.4559 70.8653 74.8207 70.7885 75.1567 70.7117C75.3103 70.6765 75.4575 70.6253 75.6015 70.5709C75.5279 70.7341 75.4607 70.8973 75.3967 71.0637C75.2559 71.4285 75.1279 71.8093 75.1023 72.2029C75.0767 72.5933 75.1567 72.9901 75.2687 73.3613C75.3871 73.7581 76.0015 73.5821 75.8831 73.1853C75.7935 72.8813 75.7263 72.5709 75.7391 72.2509C75.7519 71.9213 75.8799 71.5821 75.9951 71.2749C76.1199 70.9517 76.2703 70.6285 76.4431 70.3277C76.4943 70.2413 76.5487 70.1357 76.6159 70.0461C76.7887 69.9405 76.9615 69.8317 77.1375 69.7229C77.4895 69.5085 77.1631 68.9677 76.8047 69.1757L76.8079 69.1789Z" fill="#A35700"/>
    <path d="M55.5727 74.8971C54.8655 75.1723 54.1679 75.4155 53.6271 75.9723C53.3679 76.2379 53.1055 76.5451 52.9263 76.8715C52.7887 77.1211 52.6991 77.3963 52.5807 77.6587C52.5807 77.6587 52.5807 77.6555 52.5807 77.6523C52.5647 77.4699 52.5359 77.2907 52.5167 77.1083C52.4751 76.7051 52.3215 76.3691 52.1231 76.0203C52.0335 75.8635 51.9439 75.7003 51.8447 75.5499C51.7359 75.3835 51.6239 75.3131 51.4447 75.2299C51.3487 75.1851 51.2143 75.1563 51.1215 75.2299C51.1087 75.2395 51.0927 75.2523 51.0799 75.2619C50.9423 75.3675 50.8719 75.5371 50.9647 75.7003C51.0191 75.7963 51.1503 75.8635 51.2687 75.8603C51.2751 75.8667 51.2847 75.8699 51.2911 75.8763C51.3391 75.9243 51.3711 76.0139 51.4063 76.0715C51.5151 76.2539 51.6271 76.4331 51.7199 76.6251C51.9023 76.9899 51.9247 77.4155 51.9503 77.8187C51.9663 78.0843 51.9503 78.3947 52.0911 78.6315C52.2895 78.9675 52.7183 78.8811 52.8527 78.5451C52.9711 78.2443 53.1407 77.9435 53.2847 77.6395C53.3519 77.4955 53.3999 77.3387 53.4799 77.1979C53.5759 77.0251 53.7007 76.8651 53.8255 76.7147C54.0783 76.4107 54.3535 76.1451 54.7023 75.9563C55.0351 75.7771 55.3935 75.6555 55.7455 75.5179C56.1263 75.3707 55.9599 74.7499 55.5759 74.9003L55.5727 74.8971Z" fill="#A35700"/>
    <path d="M69.6206 74.4998C68.8814 74.4998 68.1198 74.5414 67.419 74.8038C67.1054 74.9222 66.8142 75.0822 66.5358 75.2678C66.587 75.0886 66.6222 74.903 66.6478 74.7206C66.7214 74.1894 66.7694 73.4886 66.4174 73.0438C66.3118 72.9094 66.0782 72.9318 65.9662 73.0438C65.8318 73.1782 65.8574 73.3606 65.9662 73.495C66.075 73.6326 66.043 73.9334 66.043 74.0934C66.043 74.3686 66.0238 74.631 65.9662 74.903C65.9118 75.1558 65.8286 75.3734 65.7134 75.6038C65.6078 75.8182 65.4606 76.0038 65.4382 76.2502C65.4158 76.455 65.659 76.6182 65.8446 76.5574C66.1486 76.4614 66.3406 76.2054 66.5838 76.0166C66.875 75.7926 67.1918 75.5782 67.5342 75.4406C68.1934 75.1718 68.9134 75.1398 69.6174 75.1366C70.0302 75.1366 70.0302 74.4966 69.6174 74.4966L69.6206 74.4998Z" fill="#A35700"/>
    <path d="M74.6896 78.7758C74.5488 78.6926 74.328 78.7342 74.2512 78.891C74.0144 79.371 73.736 79.8318 73.5696 80.3406C73.5632 80.3566 73.5632 80.3758 73.5568 80.3918C73.5024 80.299 73.4416 80.2062 73.3776 80.1166C73.1536 79.8062 72.904 79.5182 72.6352 79.2462C72.4976 79.1086 72.3664 78.9678 72.2256 78.8366C72.1808 78.795 72.1296 78.7534 72.0848 78.7118C72.04 78.6702 72.024 78.667 72.0208 78.635C71.9952 78.4654 71.7776 78.3694 71.6272 78.411C71.4448 78.4622 71.3776 78.6318 71.4032 78.8046C71.4416 79.0734 71.7648 79.2814 71.944 79.4606C72.2032 79.7198 72.4656 79.979 72.696 80.267C72.9008 80.5262 73.0896 80.8046 73.2112 81.1118C73.2688 81.2558 73.3456 81.4254 73.368 81.579C73.3904 81.7166 73.3072 81.8702 73.2784 82.0046C73.192 82.4046 73.8 82.5742 73.8928 82.1838C74.0496 82.1678 74.1904 82.0334 74.184 81.8702C74.1776 81.7326 74.1392 81.611 74.0976 81.4798C74.0624 81.371 74.0624 81.275 74.0656 81.1598C74.072 80.9358 74.1104 80.7246 74.184 80.5102C74.3344 80.0558 74.5904 79.643 74.8016 79.211C74.8784 79.0574 74.8432 78.8654 74.6864 78.7726L74.6896 78.7758Z" fill="#A35700"/>
    <path d="M92.1966 72.3688C92.0078 72.2088 91.7806 72.1192 91.5438 72.0584C91.307 71.9976 91.067 71.9368 90.8302 71.8792C90.5678 71.8184 90.299 71.7864 90.0302 71.7736C90.2542 71.62 90.475 71.4664 90.683 71.2968C90.923 71.1016 91.147 70.8872 91.3358 70.644C91.4382 70.5128 91.499 70.3688 91.5854 70.2248L91.6014 70.1992C91.627 70.164 91.659 70.1288 91.6846 70.0936C91.7326 70.0264 91.771 69.9464 91.7806 69.8664C91.803 69.6968 91.739 69.524 91.5566 69.4728C91.4062 69.4312 91.1854 69.524 91.163 69.6968C91.1598 69.7256 91.1438 69.7544 91.1278 69.7768C91.0766 69.844 91.0286 69.9048 90.9902 69.9784C90.9326 70.0904 90.8846 70.1992 90.8014 70.2952C90.6126 70.5224 90.3918 70.724 90.1582 70.9032C89.9086 71.0952 89.643 71.284 89.3742 71.4504C89.1566 71.5848 88.9134 71.6296 88.7854 71.8824C88.6958 72.0584 88.7662 72.2248 88.9006 72.3048C88.9518 72.4744 89.1246 72.5576 89.291 72.5224C89.387 72.5032 89.4734 72.4392 89.5598 72.4168C89.6654 72.3912 89.7998 72.4104 89.9054 72.4136C90.1614 72.4232 90.4046 72.4456 90.6542 72.5032C90.8622 72.5512 91.0638 72.6088 91.2718 72.66C91.435 72.6984 91.6526 72.7528 91.7422 72.8296C91.8734 72.9416 92.0654 72.9576 92.1934 72.8296C92.3086 72.7144 92.3246 72.4904 92.1934 72.3784L92.1966 72.3688Z" fill="#A35700"/>
    <path d="M89.6046 81.7353C89.5726 81.6137 89.5854 81.4857 89.5662 81.3609C89.5502 81.2681 89.5278 81.1785 89.5246 81.0857C89.515 80.8105 89.547 80.5449 89.5054 80.2729C89.467 80.0233 89.4734 79.7769 89.4766 79.5241C89.4798 79.2585 89.467 79.0153 89.4094 78.7561C89.3198 78.3529 88.7054 78.5257 88.7918 78.9257C88.843 79.1593 88.8366 79.3769 88.8366 79.6169C88.8366 79.8953 88.8526 80.1545 88.8878 80.4297C88.9198 80.6761 88.8718 80.9257 88.8942 81.1753C88.8942 81.1913 88.9006 81.2073 88.9006 81.2265C88.875 81.2169 88.8494 81.2041 88.8238 81.1945C88.5518 81.0985 88.267 81.0249 87.9886 80.9577C87.419 80.8201 86.8302 80.7689 86.2606 80.6345C85.8606 80.5417 85.6878 81.1561 86.091 81.2521C86.6222 81.3769 87.1694 81.4281 87.7038 81.5497C88.1678 81.6521 88.7022 81.7513 89.0766 82.0521C89.1886 82.1417 89.3326 82.1801 89.4638 82.1033C89.5854 82.0329 89.6494 81.8793 89.611 81.7417L89.6046 81.7353Z" fill="#A35700"/>
    <path d="M57.7551 81.1173C57.1375 81.1653 56.5455 81.3413 55.9471 81.4885C55.7231 81.5429 55.5023 81.5845 55.2751 81.6133C55.5311 81.4213 55.7871 81.2133 56.0079 80.9893C56.2799 80.7141 56.4879 80.3685 56.6959 80.0421C56.7951 79.8885 56.8783 79.7253 56.9711 79.5685C57.0543 79.4245 57.1055 79.2485 57.2079 79.1173C57.3135 78.9797 57.3391 78.7973 57.2079 78.6661C57.0959 78.5541 56.8623 78.5285 56.7567 78.6661C56.6447 78.8101 56.5711 78.9605 56.4879 79.1237C56.4079 79.2805 56.3151 79.4341 56.2255 79.5877C56.0527 79.8853 55.8607 80.2021 55.6303 80.4613C55.4063 80.7109 55.1247 80.9349 54.8559 81.1397C54.5903 81.3413 54.3023 81.5141 53.9695 81.5685C53.7999 81.5973 53.7039 81.8085 53.7455 81.9621C53.7743 82.0613 53.8383 82.1253 53.9215 82.1605C53.9567 82.3237 54.0975 82.4677 54.3055 82.4069C54.5807 82.3301 54.8623 82.3045 55.1471 82.2757C55.4543 82.2437 55.7551 82.1925 56.0559 82.1221C56.6191 81.9877 57.1759 81.8021 57.7583 81.7573C57.9311 81.7445 58.0783 81.6197 58.0783 81.4373C58.0783 81.2741 57.9311 81.1045 57.7583 81.1173H57.7551Z" fill="#A35700"/>
    <path d="M61.1982 72.4231C60.7086 72.6695 60.1518 72.7879 59.707 73.1207C59.5438 73.2423 59.3998 73.3831 59.2622 73.5335C59.2366 73.3063 59.2334 73.0791 59.2718 72.8519C59.323 72.5543 59.3966 72.2535 59.499 71.9719C59.595 71.7063 59.835 71.5143 59.899 71.2391C59.9918 70.8391 59.3742 70.6663 59.2814 71.0695C59.2558 71.1879 59.1438 71.2871 59.0766 71.3895C58.987 71.5271 58.9262 71.6775 58.8718 71.8343C58.7694 72.1319 58.6926 72.4359 58.6446 72.7463C58.5934 73.0759 58.5934 73.3863 58.6446 73.7159C58.6638 73.8535 58.7118 73.9943 58.7214 74.1319C58.731 74.2567 58.6702 74.3847 58.6606 74.5095C58.6382 74.8231 59.1182 74.9511 59.2558 74.6695C59.4542 74.2663 59.7422 73.8663 60.1198 73.6103C60.5454 73.3223 61.0638 73.2071 61.5214 72.9767C61.8894 72.7911 61.5662 72.2407 61.1982 72.4231Z" fill="#A35700"/>
    <path d="M48.328 80.3919C47.7712 80.4271 47.24 80.2095 46.696 80.1391C46.184 80.0719 45.7104 79.8223 45.2016 79.7455C45.032 79.7199 44.8592 79.7871 44.808 79.9695C44.7664 80.1199 44.8592 80.3375 45.032 80.3631C45.3136 80.4047 45.5728 80.5231 45.848 80.5935C46.1168 80.6639 46.3664 80.7311 46.6416 80.7727C46.9008 80.8111 47.1568 80.8751 47.4128 80.9327C47.176 81.0703 46.9456 81.2175 46.7312 81.3935C46.5008 81.5855 46.28 81.7871 46.0464 81.9759C45.9344 82.0655 45.8224 82.1583 45.7264 82.2671C45.6368 82.3663 45.5728 82.4815 45.4704 82.5679C45.3392 82.6799 45.3552 82.9039 45.4704 83.0191C45.5984 83.1471 45.7936 83.1343 45.9216 83.0191C46.0176 82.9359 46.0816 82.8303 46.1616 82.7343C46.2416 82.6383 46.3376 82.5583 46.4336 82.4783C46.6576 82.2927 46.8752 82.1071 47.096 81.9183C47.3136 81.7327 47.5504 81.5855 47.8 81.4447C47.9216 81.3743 48.056 81.3135 48.1712 81.2335C48.2448 81.1823 48.3312 81.0575 48.4144 81.0255C48.5616 80.9647 48.6704 80.8431 48.6448 80.6735C48.6224 80.5263 48.4912 80.3855 48.3312 80.3951L48.328 80.3919Z" fill="#A35700"/>
    <path d="M47.3679 71.2614C47.4767 70.967 47.5919 70.695 47.6015 70.375C47.6111 70.0678 47.1439 69.9238 47.0063 70.215C46.6767 70.9062 46.2671 71.5558 45.9599 72.2566C45.8319 72.551 45.7199 72.8678 45.5279 73.1302C45.3039 73.431 44.9935 73.6806 44.7279 73.943C44.4367 74.2342 44.8879 74.6854 45.1791 74.3942C45.4479 74.1254 45.7487 73.8726 45.9855 73.5718C46.2127 73.287 46.3439 72.9638 46.4879 72.631C46.5263 72.5446 46.5679 72.4582 46.6095 72.375C46.6415 72.9734 46.7503 73.5686 46.7887 74.167C46.8143 74.5766 47.4575 74.5798 47.4287 74.167C47.3839 73.4918 47.2463 72.8262 47.2367 72.1478C47.2303 71.831 47.2591 71.5526 47.3679 71.255V71.2614Z" fill="#A35700"/>
    <path d="M67.1823 69.3805C66.9391 69.2109 66.6607 69.0925 66.3695 69.0509C65.9887 68.9997 65.6399 69.0925 65.3359 69.2941C65.3487 69.0829 65.3359 68.8685 65.3103 68.6669C65.2431 68.0941 64.9679 67.3389 64.2607 67.3869C64.0879 67.3997 63.9407 67.5245 63.9407 67.7069C63.9407 67.8701 64.0879 68.0397 64.2607 68.0269C64.2895 68.0269 64.3183 68.0237 64.3471 68.0269C64.3535 68.0269 64.3535 68.0269 64.3535 68.0269C64.3535 68.0269 64.3599 68.0301 64.3727 68.0333C64.3823 68.0365 64.3855 68.0365 64.3887 68.0397C64.3887 68.0397 64.3855 68.0397 64.3951 68.0429C64.4015 68.0429 64.4239 68.0621 64.4303 68.0653C64.4655 68.0973 64.4815 68.1133 64.4911 68.1325C64.5231 68.1773 64.5487 68.2285 64.5711 68.2797C64.6383 68.4269 64.6767 68.6573 64.6863 68.8301C64.6927 68.9741 64.6991 69.1213 64.6991 69.2653C64.6991 69.4445 64.6351 69.5917 64.5807 69.7613C64.5263 69.9341 64.4847 70.1037 64.4175 70.2701C64.3503 70.4365 64.2799 70.5997 64.2351 70.7725C64.1487 71.1021 64.5327 71.2781 64.7695 71.0829C64.9007 70.9773 64.9743 70.8173 65.0447 70.6701C65.1215 70.5101 65.2111 70.3565 65.3103 70.2125C65.4831 69.9629 65.7519 69.7101 66.0687 69.6813C66.2031 69.6685 66.3375 69.6909 66.4687 69.7325C66.4815 69.7357 66.4911 69.7421 66.5039 69.7453C66.5487 69.7677 66.5935 69.7869 66.6383 69.8093C66.6863 69.8349 66.7343 69.8605 66.7823 69.8893C66.8079 69.9053 66.8335 69.9213 66.8591 69.9373C66.8303 70.0493 66.8591 70.1773 66.9359 70.2573C67.0671 70.3885 67.2559 70.3693 67.3871 70.2573C67.7231 69.9693 67.4607 69.5789 67.1791 69.3837L67.1823 69.3805Z" fill="#A35700"/>
    <path d="M90.091 36.4238C89.9118 37.5502 89.3614 38.6734 88.3982 39.2846C87.659 39.7518 86.763 39.8798 85.8926 39.9726C82.1806 40.3662 78.4366 40.299 74.7022 40.235C65.8126 40.0782 56.923 39.9214 48.0334 39.7646C46.3246 39.7358 44.5294 39.6814 43.051 38.8206C41.5758 37.9598 40.5902 35.995 41.3966 34.4878C42.2062 32.971 44.2286 32.6958 45.9438 32.6158C59.8414 31.947 73.7646 31.8126 87.6718 32.2094C88.7054 32.2382 89.643 32.1806 90.0686 33.179C90.4078 33.9758 90.2254 35.5982 90.091 36.4238Z" fill="#0037EB"/>
</svg>
